<!-- icon666.com - MILLIONS vector ICONS FREE -->
<svg stroke="currentColor" fill="currentColor" id="Capa_1" enable-background="new 0 0 512.023 512.023" viewBox="0 0 512.023 512.023" xmlns="http://www.w3.org/2000/svg">
	<g>
		<path d="m108.011 216.011c13.22 0 25.9-2.39 37.61-6.75l-24.38-24.38c-46.929 8.512-91.704-29.102-91.23-76.87 0-43.01 34.99-78 78-78 47.762-.473 85.39 44.301 76.87 91.23l24.38 24.38c26.737-68.772-27.216-146.705-101.251-145.609-143.268 5.929-143.24 210.084.001 215.999z">
		</path>
		<path d="m327.141 121.241c-8.512-46.929 29.102-91.704 76.87-91.23 43.01 0 78 34.99 78 78 .473 47.762-44.301 85.39-91.23 76.87l-24.38 24.38c68.767 26.738 146.709-27.217 145.609-101.251.001-59.549-48.449-107.999-107.999-107.999-74.024-1.094-127.999 76.843-101.25 145.61z">
		</path>
		<path d="m184.881 390.781c8.512 46.929-29.102 91.704-76.87 91.23-43.01 0-78-34.99-78-78-.473-47.762 44.301-85.39 91.23-76.87l24.38-24.38c-68.767-26.737-146.709 27.218-145.609 101.252-.001 59.549 48.449 107.999 107.999 107.999 74.024 1.094 127.999-76.843 101.25-145.61z">
		</path>
		<path d="m404.011 296.011c-13.22 0-25.9 2.39-37.61 6.75l24.38 24.38c46.929-8.512 91.704 29.102 91.23 76.87 0 43.01-34.99 78-78 78-47.762.473-85.39-44.301-76.87-91.23l-24.38-24.38c-26.737 68.773 27.217 146.706 101.251 145.609 143.268-5.929 143.241-210.084-.001-215.999z">
		</path>
		<path d="m117.511 373.301 21.21 21.21 71.63-71.63c-8.31-5.69-15.52-12.9-21.21-21.21z">
		</path>
		<path d="m373.301 117.511c-20.565 20.565-51.264 51.264-71.63 71.63 8.31 5.69 15.52 12.9 21.21 21.21l71.63-71.63z">
		</path>
		<path d="m138.721 117.511-21.21 21.21 71.63 71.63c5.69-8.31 12.9-15.52 21.21-21.21 0 0-58.546-58.546-71.63-71.63z">
		</path>
		<path d="m301.671 322.881 71.63 71.63 21.21-21.21-71.63-71.63c-5.69 8.31-12.9 15.52-21.21 21.21z">
		</path>
		<circle cx="256.011" cy="256.011" r="51">
		</circle>
	</g>
</svg>
