<svg xmlns="http://www.w3.org/2000/svg" fill="aliceblue" stroke="aliceblue" viewBox="0 0 512.023 512.023">
    <path d="M108.011 216.011c13.22 0 25.9-2.39 37.61-6.75l-24.38-24.38c-46.929 8.512-91.704-29.102-91.23-76.87 0-43.01 34.99-78 78-78 47.762-.473 85.39 44.301 76.87 91.23l24.38 24.38C235.998 76.849 182.045-1.084 108.01.012c-143.268 5.929-143.24 210.084.001 215.999zm219.13-94.77c-8.512-46.929 29.102-91.704 76.87-91.23 43.01 0 78 34.99 78 78 .473 47.762-44.301 85.39-91.23 76.87l-24.38 24.38c68.767 26.738 146.709-27.217 145.609-101.251C512.011 48.461 463.561.011 404.011.011c-74.024-1.094-127.999 76.843-101.25 145.61zm-142.26 269.54c8.512 46.929-29.102 91.704-76.87 91.23-43.01 0-78-34.99-78-78-.473-47.762 44.301-85.39 91.23-76.87l24.38-24.38C76.854 276.024-1.088 329.979.012 404.013c-.001 59.549 48.449 107.999 107.999 107.999 74.024 1.094 127.999-76.843 101.25-145.61zm219.13-94.77c-13.22 0-25.9 2.39-37.61 6.75l24.38 24.38c46.929-8.512 91.704 29.102 91.23 76.87 0 43.01-34.99 78-78 78-47.762.473-85.39-44.301-76.87-91.23l-24.38-24.38c-26.737 68.773 27.217 146.706 101.251 145.609 143.268-5.929 143.241-210.084-.001-215.999z"/>
    <path d="m117.511 373.301 21.21 21.21 71.63-71.63a81.637 81.637 0 0 1-21.21-21.21zm255.79-255.79-71.63 71.63a81.637 81.637 0 0 1 21.21 21.21l71.63-71.63zm-234.58 0-21.21 21.21 71.63 71.63a81.637 81.637 0 0 1 21.21-21.21l-71.63-71.63zm162.95 205.37 71.63 71.63 21.21-21.21-71.63-71.63a81.637 81.637 0 0 1-21.21 21.21z"/>
    <circle cx="256.011" cy="256.011" r="51"/>
</svg>