<!-- icon666.com - MILLIONS vector ICONS FREE -->
<svg viewBox="0 0 512 512" xmlns="http://www.w3.org/2000/svg">
	<path d="m437.019531 74.980469c-48.351562-48.351563-112.640625-74.980469-181.019531-74.980469s-132.667969 26.628906-181.019531 74.980469c-48.351563 48.351562-74.980469 112.640625-74.980469 181.019531s26.628906 132.667969 74.980469 181.019531c48.351562 48.351563 112.640625 74.980469 181.019531 74.980469s132.667969-26.628906 181.019531-74.980469c48.351563-48.351562 74.980469-112.640625 74.980469-181.019531s-26.628906-132.667969-74.980469-181.019531zm-67.019531-31.433594-8.59375 14.882813c-30.101562-16.078126-63.746094-25.15625-98.636719-26.234376-39.480469-1.21875-78.007812 7.929688-112.195312 26.207032l-8.574219-14.855469c34.636719-18.644531 73.554688-28.546875 114-28.546875s79.363281 9.902344 114 28.546875zm-284.414062 42.039063c13.292968-13.289063 27.867187-24.820313 43.441406-34.511719l8.5625 14.832031c-10.269532 6.410156-20.078125 13.6875-29.320313 21.800781-42.773437 37.546875-69.433593 89.398438-75.0625 146.003907-.492187 4.933593-.808593 9.867187-.976562 14.789062h-17.101563c1.867188-61.5625 26.710938-119.164062 70.457032-162.914062zm-70.457032 177.914062h17.097656c1.503907 45.929688 17.046876 90.28125 45.046876 127.324219 1.476562 1.953125 3.71875 2.980469 5.988281 2.980469 1.578125 0 3.164062-.496094 4.519531-1.519532 3.304688-2.5 3.957031-7.199218 1.457031-10.503906-.890625-1.183594-1.765625-2.375-2.632812-3.574219l.265625-.179687c3.445312-2.300782 4.371094-6.957032 2.070312-10.402344-2.300781-3.445312-6.957031-4.371094-10.402344-2.070312l-.285156.191406c-4.589844-7.40625-8.675781-15.0625-12.277344-22.917969l.335938-.140625c3.828125-1.585938 5.648438-5.972656 4.0625-9.796875-1.585938-3.828125-5.976562-5.648437-9.800781-4.0625l-.34375.144531c-3.035157-8.128906-5.558594-16.4375-7.550781-24.882812l.367187-.074219c4.0625-.808594 6.703125-4.757813 5.894531-8.820313s-4.757812-6.699218-8.820312-5.890624l-.363282.074218c-1.375-8.535156-2.21875-17.175781-2.523437-25.878906h.34375c4.144531 0 7.5-3.359375 7.5-7.5s-3.355469-7.5-7.5-7.5h-.335937c.160156-4.429688.449218-8.863281.890624-13.304688.417969-4.222656.976563-8.410156 1.644532-12.566406l.34375.066406c.492187.097657.984375.144532 1.472656.144532 3.503906 0 6.636719-2.46875 7.347656-6.035156.804688-4.066407-1.832031-8.011719-5.894531-8.820313l-.363281-.074219c1.992187-8.476562 4.496094-16.792968 7.507812-24.898437l.382813.160156c.9375.386719 1.910156.570313 2.867187.570313 2.941406 0 5.734375-1.742188 6.929688-4.628907 1.585937-3.828125-.230469-8.214843-4.058594-9.800781l-.394531-.164062c3.601562-7.890626 7.710937-15.546876 12.273437-22.933594l.34375.230468c1.28125.855469 2.730469 1.265626 4.160156 1.265626 2.421876 0 4.796876-1.171876 6.242188-3.335938 2.300781-3.441406 1.375-8.101562-2.066406-10.402344l-.335938-.222656c5.0625-7.003906 10.570313-13.714844 16.515625-20.089844l.269531.269532c1.460938 1.464843 3.382813 2.195312 5.300782 2.195312 1.917968 0 3.839844-.730469 5.304687-2.195312 2.929688-2.929688 2.929688-7.679688 0-10.605469l-.265625-.265625c1.480469-1.375 2.976563-2.738282 4.5-4.078125 5.027344-4.410157 10.230469-8.554688 15.59375-12.429688l.214844.324219c1.445312 2.164062 3.824219 3.332031 6.246094 3.332031 1.429687 0 2.878906-.410156 4.15625-1.265625 3.445312-2.300781 4.371094-6.957031 2.070312-10.402344l-.222656-.332031c1.671875-1.035156 3.359375-2.039062 5.058594-3.023437.082031-.046875.171875-.078125.253906-.125.097656-.058594.1875-.121094.28125-.183594 5.648438-3.257812 11.433594-6.238281 17.339844-8.941406l.15625.382812c1.195312 2.886719 3.988281 4.632813 6.933594 4.632813.953124 0 1.929687-.183594 2.867187-.574219 3.824219-1.585938 5.644531-5.972656 4.058594-9.800781l-.160157-.382813c8.125-3.03125 16.4375-5.554687 24.890626-7.546875l.082031.402344c.710937 3.570313 3.84375 6.039063 7.347656 6.039063.484375 0 .976563-.046876 1.472656-.144532 4.0625-.808594 6.699219-4.757812 5.890625-8.820312l-.078125-.386719c8.527344-1.371094 17.167969-2.207031 25.882813-2.507813v.351563c0 4.144531 3.359375 7.5 7.5 7.5 4.144531 0 7.5-3.355469 7.5-7.5v-.339844c8.726562.320313 17.359375 1.175781 25.871094 2.546875l-.066407.335938c-.808593 4.0625 1.832031 8.011718 5.894531 8.820312.492188.097656.984376.144532 1.46875.144532 3.507813 0 6.640626-2.46875 7.351563-6.035157l.066406-.351562c8.464844 1.996093 16.78125 4.5 24.890625 7.519531l-.148437.355469c-1.582031 3.828125.234375 8.214843 4.0625 9.800781.9375.390625 1.910156.574219 2.867187.574219 2.941406 0 5.734375-1.746094 6.929688-4.632813l.148437-.355468c7.882813 3.601562 15.53125 7.703124 22.921875 12.277343l-.203125.300781c-2.300781 3.445313-1.375 8.101563 2.070313 10.402344 1.28125.855469 2.726562 1.265625 4.160156 1.265625 2.421875 0 4.796875-1.171875 6.242188-3.335937l.195312-.285156c6.992188 5.054687 13.699219 10.558593 20.078125 16.507812l-.230469.230469c-2.929687 2.929687-2.929687 7.675781 0 10.605469 1.464844 1.464843 3.382813 2.195312 5.304688 2.195312 1.917968 0 3.839844-.730469 5.300781-2.195312l5.667969-5.667969c2.929687-2.929688 2.929687-7.679688 0-10.605469-.292969-.296875-.613282-.554688-.941406-.792969-.171876-.210937-.355469-.414062-.554688-.609375-11.777344-11.585937-24.683594-21.714844-38.457031-30.3125l8.582031-14.863281c15.570312 9.6875 30.148438 21.222656 43.4375 34.511719 43.746094 43.746094 68.589844 101.351562 70.460938 162.914062h-17.097657c-1.507812-45.933594-17.050781-90.285156-45.046875-127.328125-2.5-3.304687-7.203125-3.957031-10.507812-1.457031-3.304688 2.496094-3.957032 7.199219-1.457032 10.503906.890626 1.179688 1.765626 2.375 2.632813 3.574219l-.265625.179687c-3.445312 2.300782-4.371094 6.957032-2.070312 10.402344 1.445312 2.164063 3.824218 3.332032 6.242187 3.332032 1.433594 0 2.882813-.410157 4.160156-1.265626l.285157-.1875c4.585937 7.402344 8.675781 15.0625 12.277343 22.917969l-.335937.136719c-3.828125 1.585938-5.648438 5.972656-4.0625 9.800781 1.195312 2.890625 3.988281 4.632813 6.933594 4.632813.957031 0 1.929687-.183594 2.867187-.574219l.34375-.144531c3.035156 8.132812 5.558594 16.441406 7.550781 24.882812l-.367187.074219c-4.0625.808594-6.703125 4.757813-5.894531 8.820313.710937 3.566406 3.84375 6.039062 7.347656 6.039062.484375 0 .980468-.046875 1.472656-.148438l.363281-.074218c1.375 8.535156 2.21875 17.175781 2.523438 25.878906h-.347657c-4.140624 0-7.5 3.359375-7.5 7.5s3.359376 7.5 7.5 7.5h.339844c-.160156 4.429688-.449218 8.863281-.890625 13.304688-.417969 4.222656-.976562 8.410156-1.644531 12.566406l-.34375-.066406c-4.070312-.808594-8.011719 1.832031-8.820312 5.894531-.808594 4.0625 1.832031 8.011719 5.894531 8.816406l.363281.074219c-1.992188 8.476562-4.496094 16.792968-7.507812 24.898437l-.382813-.160156c-3.824219-1.582031-8.214844.234375-9.800781 4.0625-1.582032 3.828125.234375 8.214844 4.0625 9.796875l.394531.164062c-3.601563 7.894532-7.710937 15.546876-12.273437 22.933594l-.34375-.226562c-3.445313-2.304688-8.101563-1.375-10.402344 2.066406-2.300782 3.445312-1.375 8.101562 2.066406 10.402344l.335938.226562c-5.0625 7.003906-10.570313 13.714844-16.515626 20.089844l-.269531-.269531c-2.929687-2.929688-7.675781-2.929688-10.605469 0-2.929687 2.929687-2.929687 7.675781 0 10.605469l.265626.261718c-1.480469 1.378906-2.976563 2.742188-4.5 4.078125-5.027344 4.410157-10.230469 8.554688-15.59375 12.433594l-.214844-.324219c-2.300782-3.445312-6.960938-4.371094-10.40625-2.070312-3.441406 2.300781-4.367188 6.957031-2.066406 10.402344l.222656.335937c-1.644532 1.015625-3.300782 2.003906-4.96875 2.972656-.113282.058594-.230469.109375-.34375.175781-.101563.058594-.191406.125-.289063.1875-5.648437 3.253907-11.429687 6.234376-17.332031 8.933594l-.160156-.382812c-1.582032-3.824219-5.972656-5.644532-9.796875-4.058594-3.828125 1.585938-5.644531 5.972656-4.0625 9.800781l.160156.382813c-8.125 3.03125-16.433594 5.554687-24.890625 7.546875l-.082031-.402344c-.808594-4.0625-4.753907-6.703125-8.816407-5.894531s-6.703124 4.757812-5.894531 8.820312l.078125.386719c-8.527344 1.371094-17.167968 2.207031-25.882812 2.507813v-.355469c0-4.140625-3.359375-7.5-7.5-7.5s-7.5 3.359375-7.5 7.5v.339843c-8.722656-.316406-17.359375-1.171874-25.871094-2.542968l.066406-.335938c.808594-4.066406-1.832031-8.011718-5.894531-8.820312s-8.011719 1.832031-8.816406 5.890625l-.070313.351562c-8.464844-1.996093-16.777344-4.5-24.890625-7.519531l.148438-.355469c1.585937-3.828125-.234375-8.214843-4.0625-9.800781-3.824219-1.585938-8.210938.230469-9.796875 4.058594l-.148438.355468c-7.878906-3.601562-15.53125-7.703124-22.921875-12.273437l.203125-.304687c2.300782-3.441407 1.375-8.101563-2.070312-10.402344-3.441406-2.300782-8.101563-1.375-10.402344 2.070312l-.191406.289063c-6.992188-5.058594-13.703125-10.5625-20.078125-16.511719l.226562-.226562c2.929688-2.929688 2.929688-7.679688 0-10.609376-2.929687-2.925781-7.679687-2.925781-10.605469 0l-5.667968 5.667969c-2.929688 2.929688-2.929688 7.679688 0 10.609375.296875.292969.613281.550782.945312.789063.171875.210937.351563.414062.550782.609375 11.777343 11.585937 24.683593 21.71875 38.457031 30.3125l-8.582031 14.867187c-15.570313-9.691406-30.148438-21.222656-43.4375-34.515625-43.746094-43.746094-68.589844-101.347656-70.457032-162.910156zm126.871094 204.953125 8.59375-14.882813c30.101562 16.078126 63.746094 25.15625 98.636719 26.234376 2.328125.070312 4.652343.105468 6.972656.105468 37.042969 0 73.054687-9.113281 105.222656-26.308594l8.574219 14.851563c-34.636719 18.644531-73.554688 28.546875-114 28.546875s-79.363281-9.902344-114-28.546875zm284.414062-42.039063c-13.292968 13.289063-27.867187 24.824219-43.441406 34.511719l-8.5625-14.835937c10.269532-6.410156 20.078125-13.683594 29.320313-21.796875 42.773437-37.546875 69.433593-89.398438 75.0625-146.003907.492187-4.933593.808593-9.867187.976562-14.789062h17.105469c-1.871094 61.5625-26.714844 119.164062-70.460938 162.914062zm0 0">
	</path>
</svg>
