<svg xmlns="http://www.w3.org/2000/svg" fill="green" stroke="currentColor" viewBox="0 0 512 512">
    <path d="M437.02 74.98C388.668 26.63 324.379 0 256 0S123.332 26.629 74.98 74.98C26.63 123.332 0 187.621 0 256s26.629 132.668 74.98 181.02C123.332 485.37 187.621 512 256 512s132.668-26.629 181.02-74.98C485.37 388.668 512 324.379 512 256s-26.629-132.668-74.98-181.02zM370 43.547l-8.594 14.883c-30.101-16.078-63.746-25.157-98.636-26.235-39.48-1.218-78.008 7.93-112.196 26.207L142 43.547C176.637 24.902 215.555 15 256 15s79.363 9.902 114 28.547zM85.586 85.586a243.015 243.015 0 0 1 43.441-34.512l8.563 14.832a225.14 225.14 0 0 0-29.32 21.801c-42.774 37.547-69.434 89.398-75.063 146.004a226.94 226.94 0 0 0-.977 14.789h-17.1c1.867-61.563 26.71-119.164 70.457-162.914zM15.129 263.5h17.098c1.503 45.93 17.046 90.281 45.046 127.324a7.488 7.488 0 0 0 5.989 2.98 7.473 7.473 0 0 0 4.52-1.519 7.495 7.495 0 0 0 1.456-10.504 233.46 233.46 0 0 1-2.633-3.574l.266-.18a7.499 7.499 0 0 0 2.07-10.402 7.499 7.499 0 0 0-10.402-2.07l-.285.191a208.202 208.202 0 0 1-12.277-22.918l.335-.14c3.829-1.586 5.649-5.973 4.063-9.797-1.586-3.829-5.977-5.649-9.8-4.063l-.345.145a207.001 207.001 0 0 1-7.55-24.883l.367-.074a7.5 7.5 0 1 0-2.926-14.71l-.363.073a208.57 208.57 0 0 1-2.524-25.879h.344a7.5 7.5 0 1 0 0-15h-.336c.16-4.43.45-8.863.89-13.305.419-4.222.977-8.41 1.645-12.566l.344.066a7.503 7.503 0 0 0 8.82-5.89 7.503 7.503 0 0 0-5.894-8.82l-.363-.075a208.31 208.31 0 0 1 7.507-24.898l.383.16a7.5 7.5 0 0 0 9.797-4.059 7.5 7.5 0 0 0-4.059-9.8l-.394-.165a208.063 208.063 0 0 1 12.273-22.933l.344.23a7.491 7.491 0 0 0 10.402-2.07 7.502 7.502 0 0 0-2.066-10.402l-.336-.223a208.7 208.7 0 0 1 16.516-20.09l.27.27a7.464 7.464 0 0 0 5.3 2.195 7.497 7.497 0 0 0 5.305-12.8l-.266-.266a223.92 223.92 0 0 1 4.5-4.079 211.232 211.232 0 0 1 15.594-12.43l.215.325a7.494 7.494 0 0 0 6.246 3.332c1.43 0 2.879-.41 4.156-1.266a7.499 7.499 0 0 0 2.07-10.402l-.222-.332a202.651 202.651 0 0 1 5.058-3.023c.082-.047.172-.079.254-.125.098-.059.188-.122.281-.184a207.708 207.708 0 0 1 17.34-8.941l.157.382a7.504 7.504 0 0 0 6.933 4.633 7.503 7.503 0 0 0 6.926-10.375l-.16-.383a207.166 207.166 0 0 1 24.89-7.546l.082.402a7.503 7.503 0 0 0 8.82 5.894 7.5 7.5 0 0 0 5.891-8.82l-.078-.387a208.252 208.252 0 0 1 25.883-2.507v.351a7.5 7.5 0 0 0 7.5 7.5c4.145 0 7.5-3.355 7.5-7.5v-.34c8.727.32 17.36 1.176 25.871 2.547l-.066.336a7.502 7.502 0 0 0 14.715 2.93l.066-.352a208.388 208.388 0 0 1 24.89 7.52l-.148.355a7.505 7.505 0 0 0 4.063 9.801c.937.39 1.91.574 2.867.574a7.503 7.503 0 0 0 6.93-4.633l.148-.355a207.014 207.014 0 0 1 22.922 12.277l-.203.301a7.499 7.499 0 0 0 2.07 10.402 7.491 7.491 0 0 0 10.402-2.07l.196-.285a208.643 208.643 0 0 1 20.078 16.508l-.23.23a7.497 7.497 0 0 0 5.304 12.801 7.46 7.46 0 0 0 5.3-2.195l5.669-5.668a7.497 7.497 0 0 0 0-10.606 7.498 7.498 0 0 0-.942-.793 7.369 7.369 0 0 0-.554-.61 223.767 223.767 0 0 0-38.457-30.312l8.582-14.863a242.815 242.815 0 0 1 43.437 34.512c43.746 43.746 68.59 101.351 70.461 162.914H479.77c-1.508-45.934-17.051-90.285-45.047-127.328a7.5 7.5 0 0 0-10.508-1.457 7.495 7.495 0 0 0-1.457 10.504c.89 1.18 1.765 2.375 2.633 3.574l-.266.18a7.499 7.499 0 1 0 8.332 12.468l.285-.187a208.51 208.51 0 0 1 12.278 22.918l-.336.136a7.501 7.501 0 0 0-4.063 9.801 7.498 7.498 0 0 0 9.8 4.059l.345-.145a207.432 207.432 0 0 1 7.55 24.883l-.367.074a7.502 7.502 0 0 0 1.453 14.86c.485 0 .98-.047 1.473-.149l.363-.074a208.57 208.57 0 0 1 2.524 25.879h-.348c-4.14 0-7.5 3.36-7.5 7.5s3.36 7.5 7.5 7.5h.34c-.16 4.43-.45 8.863-.89 13.305-.419 4.222-.977 8.41-1.645 12.566l-.344-.066a7.498 7.498 0 0 0-8.82 5.894 7.497 7.497 0 0 0 5.894 8.817l.363.074a208.31 208.31 0 0 1-7.507 24.898l-.383-.16a7.499 7.499 0 1 0-5.738 13.86l.394.164a207.71 207.71 0 0 1-12.273 22.933l-.344-.226a7.498 7.498 0 0 0-10.402 2.066 7.501 7.501 0 0 0 2.066 10.402l.336.227a208.7 208.7 0 0 1-16.516 20.09l-.27-.27a7.497 7.497 0 0 0-10.605 0 7.497 7.497 0 0 0 0 10.606l.266.261a202.566 202.566 0 0 1-4.5 4.079 212.32 212.32 0 0 1-15.594 12.433l-.215-.324a7.503 7.503 0 0 0-10.406-2.07 7.501 7.501 0 0 0-2.066 10.402l.222.336a213.855 213.855 0 0 1-4.968 2.973c-.114.058-.23.109-.344.175-.102.059-.192.125-.29.188a208.09 208.09 0 0 1-17.331 8.933l-.16-.382a7.499 7.499 0 0 0-9.797-4.059 7.505 7.505 0 0 0-4.063 9.8l.16.384a206.952 206.952 0 0 1-24.89 7.546l-.082-.402c-.809-4.062-4.754-6.703-8.817-5.894s-6.703 4.757-5.894 8.82l.078.387a208.252 208.252 0 0 1-25.883 2.507v-.355c0-4.14-3.36-7.5-7.5-7.5s-7.5 3.36-7.5 7.5v.34a210.67 210.67 0 0 1-25.871-2.543l.066-.336c.809-4.067-1.832-8.012-5.894-8.82s-8.012 1.832-8.817 5.89l-.07.352a208.605 208.605 0 0 1-24.89-7.52l.148-.355a7.501 7.501 0 0 0-4.063-9.801 7.497 7.497 0 0 0-9.796 4.059l-.149.355a207.991 207.991 0 0 1-22.922-12.273l.203-.305a7.5 7.5 0 0 0-2.07-10.402 7.5 7.5 0 0 0-10.402 2.07l-.192.289a208.788 208.788 0 0 1-20.078-16.512l.227-.226a7.502 7.502 0 0 0 0-10.61c-2.93-2.925-7.68-2.925-10.606 0l-5.668 5.668a7.502 7.502 0 0 0 0 10.61c.297.293.614.55.946.789.172.21.351.414.55.61a223.577 223.577 0 0 0 38.457 30.312l-8.582 14.867a242.838 242.838 0 0 1-43.437-34.516C41.84 382.664 16.996 325.062 15.129 263.5zM142 468.453l8.594-14.883c30.101 16.078 63.746 25.157 98.636 26.235 2.329.07 4.653.105 6.973.105 37.043 0 73.055-9.113 105.223-26.308L370 468.453C335.363 487.098 296.445 497 256 497s-79.363-9.902-114-28.547zm284.414-42.039c-13.293 13.29-27.867 24.824-43.441 34.512l-8.563-14.836a225.109 225.109 0 0 0 29.32-21.797c42.774-37.547 69.434-89.398 75.063-146.004.492-4.934.809-9.867.977-14.789h17.105c-1.871 61.563-26.715 119.164-70.46 162.914zm0 0"/>
</svg>