<svg xmlns="http://www.w3.org/2000/svg" xml:space="preserve" fill="red" stroke="red" style="enable-background:new 0 0 60 60" viewBox="0 0 60 60"><path d="M12 0H0v60h60V0H12zm36 39.045L39.045 48H30.56L48 30.56v8.485zm0 2.828V48h-6.127L48 41.873zM27.731 48h-8.485L48 19.246v8.485L27.731 48zM48 16.418 16.418 48H12v-4.067L43.932 12H48v4.418zM12 41.104v-8.485L32.619 12h8.485L12 41.104zm0-11.313v-8.486L21.305 12h8.486L12 29.791zm0-11.314V12h6.477L12 18.477zM2 2h8v46H2V2zm46 56H2v-8h46v8zm10 0h-8V12h8v46zm-8-48H12V2h46v8h-8z"/><circle cx="55" cy="4" r="1"/><circle cx="51" cy="4" r="1"/><circle cx="55" cy="8" r="1"/><circle cx="51" cy="8" r="1"/><circle cx="56" cy="55" r="1"/><circle cx="56" cy="51" r="1"/><circle cx="52" cy="55" r="1"/><circle cx="52" cy="51" r="1"/><circle cx="5" cy="56" r="1"/><circle cx="9" cy="56" r="1"/><circle cx="5" cy="52" r="1"/><circle cx="9" cy="52" r="1"/><circle cx="4" cy="5" r="1"/><circle cx="4" cy="9" r="1"/><circle cx="8" cy="5" r="1"/><circle cx="8" cy="9" r="1"/></svg>